<?xml version="1.0" encoding="UTF-8" standalone="no"?>
<!DOCTYPE svg PUBLIC "-//W3C//DTD SVG 1.1//EN" "http://www.w3.org/Graphics/SVG/1.1/DTD/svg11.dtd">
<svg version="1.1" xmlns="http://www.w3.org/2000/svg" xmlns:xlink="http://www.w3.org/1999/xlink" preserveAspectRatio="xMidYMid meet" viewBox="-1 -1 34.00004688 34" width="30" height="30"><defs><path d="M4.39 0C1.97 0 0 1.97 0 4.39C0 6.52 0 23.48 0 25.61C0 28.03 1.97 30 4.39 30C4.98 30 7.93 30 13.24 30L13.24 19.39L9.73 19.39L9.73 14.12L13.24 14.12C13.24 11.98 13.24 10.79 13.24 10.55C13.24 7.64 15.61 5.27 18.52 5.27C18.87 5.27 20.65 5.27 23.85 5.27L23.85 10.55L18.52 10.55L18.52 14.12L23.85 14.12L22.97 19.39L18.52 19.39L18.52 30C22.77 30 25.13 30 25.61 30C28.03 30 30 28.03 30 25.61C30 23.48 30 6.52 30 4.39C30 1.97 28.03 0 25.61 0C21.36 0 6.52 0 4.39 0Z" id="c59zzCJlXT"></path></defs><g><g><use xlink:href="#c59zzCJlXT" opacity="1" fill="#f86424" fill-opacity="1"></use><g><use xlink:href="#c59zzCJlXT" opacity="1" fill-opacity="0" stroke="#000000" stroke-width="1" stroke-opacity="0"></use></g></g></g></svg>