<?xml version="1.0" standalone="no"?>
<!DOCTYPE svg PUBLIC "-//W3C//DTD SVG 20010904//EN"
 "http://www.w3.org/TR/2001/REC-SVG-20010904/DTD/svg10.dtd">
<svg version="1.0" xmlns="http://www.w3.org/2000/svg"
 width="660.000000pt" height="660.000000pt" viewBox="0 0 660.000000 660.000000"
 preserveAspectRatio="xMidYMid meet">
<metadata>
Created by potrace 1.11, written by Peter Selinger 2001-2013
</metadata>
<g transform="translate(0.000000,660.000000) scale(0.100000,-0.100000)"
fill="#000000" stroke="none">
<path d="M2383 6363 c-15 -42 -44 -120 -52 -138 -13 -29 -52 -131 -116 -300
-32 -82 -64 -163 -71 -179 -8 -16 -14 -32 -14 -36 0 -4 -8 -25 -17 -46 -9 -22
-17 -43 -19 -49 -2 -13 -72 -192 -89 -230 -7 -16 -21 -52 -31 -80 -10 -27 -22
-56 -27 -62 -5 -7 -7 -13 -4 -13 4 0 -3 -21 -14 -47 -11 -27 -43 -106 -70
-178 -27 -71 -53 -139 -59 -150 -5 -11 -24 -60 -43 -110 -19 -49 -38 -99 -42
-110 -5 -11 -9 -22 -9 -25 -1 -3 -24 -63 -52 -135 -29 -71 -78 -197 -109 -280
-32 -82 -63 -163 -70 -180 -7 -16 -30 -75 -50 -130 -21 -55 -46 -119 -56 -142
-11 -23 -19 -45 -19 -48 0 -6 -23 -67 -61 -160 -7 -16 -13 -32 -13 -35 -1 -7
-85 -219 -99 -250 -6 -14 -11 -27 -12 -30 -4 -16 -19 -59 -30 -85 -7 -16 -39
-97 -70 -180 -32 -82 -66 -169 -76 -192 -11 -24 -19 -45 -19 -48 0 -6 -94
-252 -115 -300 -7 -16 -30 -75 -50 -130 -20 -55 -41 -104 -46 -110 -5 -5 -9
-19 -9 -31 0 -13 -4 -25 -9 -28 -4 -3 -14 -26 -21 -51 -7 -25 -17 -48 -21 -51
-5 -3 -9 -12 -9 -20 0 -8 -8 -34 -19 -57 -10 -23 -50 -125 -89 -227 -92 -241
-200 -520 -211 -545 -16 -38 -161 -415 -161 -419 0 -2 -8 -21 -17 -42 -9 -22
-18 -43 -19 -49 -1 -5 -21 -57 -44 -115 -67 -168 -100 -261 -92 -257 4 3 30 8
57 11 28 4 57 9 65 11 8 2 33 6 55 10 22 3 65 10 95 15 103 18 125 21 150 25
14 2 41 6 60 10 19 4 44 8 55 10 11 1 36 5 55 9 19 4 51 8 72 10 20 2 40 6 45
9 4 2 33 8 63 11 30 4 82 11 115 17 33 7 69 13 80 15 42 6 102 15 155 24 91
16 134 23 155 26 11 1 20 3 20 4 0 1 9 3 20 4 81 11 122 17 135 21 8 2 32 6
53 9 20 3 54 9 75 12 20 3 44 7 52 9 8 2 33 7 55 10 23 3 52 8 65 10 14 3 45
8 70 11 25 3 48 8 51 10 3 2 33 6 65 10 32 3 61 7 64 9 5 3 66 14 120 21 14 1
36 5 50 8 23 5 126 22 195 32 17 3 56 10 87 15 32 6 70 12 85 15 50 8 88 14
108 18 28 5 115 18 145 22 14 1 25 3 25 4 0 1 9 3 20 5 11 1 38 5 60 9 53 8
95 15 121 21 12 3 37 7 58 10 20 3 53 8 74 11 20 3 46 7 57 9 25 4 142 24 175
29 89 16 212 36 255 42 28 3 53 8 56 10 3 1 28 6 55 10 27 3 58 8 69 10 11 3
36 7 55 10 19 3 46 7 60 10 73 12 159 26 190 30 19 3 42 6 50 9 13 4 52 10
135 21 11 1 20 3 20 4 0 1 9 3 20 4 56 8 112 17 125 21 8 2 31 6 50 9 169 25
230 35 253 42 10 3 32 7 50 9 38 3 103 13 137 20 14 3 43 8 65 11 22 3 60 9
85 14 40 8 108 20 150 25 8 2 44 8 80 14 36 7 82 14 102 16 20 2 45 6 55 9 16
4 66 13 128 21 11 2 47 8 80 13 33 6 78 14 100 17 22 3 48 8 57 11 9 3 32 7
50 8 30 4 127 19 203 32 17 3 41 7 55 9 14 2 36 6 50 9 13 3 42 8 65 11 147
21 167 27 152 44 -8 9 -54 66 -103 126 -49 61 -94 116 -101 123 -8 8 -26 30
-41 50 -26 35 -56 72 -77 96 -5 6 -37 45 -70 86 -32 41 -64 80 -70 87 -5 7
-15 18 -21 25 -34 42 -251 309 -323 398 -47 58 -90 110 -96 117 -5 7 -15 18
-20 25 -51 64 -91 114 -96 118 -3 3 -41 50 -85 105 -43 54 -86 107 -94 116 -8
9 -22 25 -30 35 -8 10 -44 55 -80 99 -36 44 -72 88 -80 99 -8 10 -20 23 -25
30 -6 6 -55 67 -110 136 -55 69 -109 135 -120 146 -11 12 -29 34 -40 49 -11
16 -25 33 -30 39 -9 10 -118 143 -155 190 -8 11 -29 35 -46 55 -16 20 -77 95
-135 166 -57 72 -110 136 -117 143 -7 8 -25 30 -40 50 -15 21 -30 39 -33 42
-6 6 -179 218 -224 276 -16 21 -37 45 -45 54 -8 8 -31 36 -50 60 -19 25 -37
47 -40 50 -4 4 -312 383 -490 604 -8 10 -30 35 -47 55 -18 20 -33 39 -33 42 0
3 -10 17 -22 30 -13 14 -39 45 -58 69 -19 24 -49 59 -66 79 -17 20 -68 83
-114 141 -47 58 -89 110 -95 116 -5 6 -21 26 -35 44 -29 39 -68 87 -90 111 -8
9 -26 31 -40 49 -14 17 -30 37 -35 44 -6 6 -38 45 -70 86 -33 41 -62 77 -65
80 -3 3 -25 30 -50 60 -25 30 -48 57 -52 58 -5 2 -8 8 -8 12 0 5 -16 26 -35
47 -20 21 -43 50 -53 66 -19 31 -30 34 -39 10z m372 -1969 c22 -27 48 -58 58
-69 10 -11 37 -45 60 -75 23 -30 47 -59 53 -65 6 -5 28 -32 50 -60 21 -27 41
-52 44 -55 3 -3 34 -40 68 -82 71 -90 72 -91 149 -184 32 -38 69 -85 83 -103
14 -18 30 -38 35 -44 6 -7 60 -73 121 -147 60 -74 117 -144 126 -155 20 -24
247 -304 292 -359 17 -21 54 -66 81 -100 28 -34 68 -83 90 -111 22 -27 42 -52
45 -55 3 -3 23 -27 45 -55 22 -27 44 -55 50 -61 5 -6 21 -26 35 -44 14 -18 30
-38 35 -44 6 -6 49 -58 95 -116 47 -58 90 -110 95 -116 13 -15 22 -26 125
-154 46 -58 88 -108 93 -111 18 -12 -6 -19 -113 -34 -56 -8 -98 -14 -130 -20
-33 -6 -109 -17 -140 -20 -14 -2 -25 -4 -25 -5 0 -1 -13 -3 -30 -5 -42 -4
-115 -15 -145 -21 -14 -2 -39 -6 -56 -8 -38 -5 -181 -26 -214 -32 -14 -2 -45
-7 -70 -10 -25 -3 -54 -8 -65 -10 -11 -2 -38 -7 -60 -10 -22 -2 -51 -7 -65 -9
-14 -2 -43 -7 -65 -9 -22 -3 -49 -7 -60 -10 -11 -2 -45 -7 -75 -11 -30 -4 -63
-9 -74 -11 -10 -2 -44 -6 -75 -10 -31 -3 -58 -8 -61 -9 -3 -2 -33 -6 -65 -10
-33 -3 -67 -8 -75 -10 -8 -2 -35 -7 -60 -10 -25 -3 -52 -8 -60 -10 -8 -3 -37
-7 -65 -10 -93 -11 -110 -13 -180 -25 -38 -7 -81 -13 -95 -15 -23 -3 -82 -12
-195 -30 -41 -7 -58 -9 -135 -19 -25 -3 -58 -8 -75 -11 -50 -9 -88 -15 -130
-20 -22 -3 -49 -7 -61 -9 -12 -2 -45 -7 -74 -11 -29 -4 -62 -9 -74 -11 -12 -2
-41 -7 -66 -10 -49 -6 -82 -11 -119 -19 -35 -7 -43 3 -25 30 9 13 15 27 14 30
-2 5 141 399 170 470 4 11 17 45 28 75 11 30 23 64 28 75 4 11 8 25 10 30 1 6
17 46 34 90 17 44 33 85 34 90 2 6 8 23 14 38 7 16 12 33 12 38 0 5 4 17 10
27 5 9 41 105 80 212 39 107 75 204 80 215 6 11 14 34 19 50 5 17 21 62 36
100 15 39 27 76 28 83 0 6 4 12 9 12 4 0 8 6 8 14 0 13 49 151 120 336 25 66
59 159 155 420 13 36 27 74 31 85 4 11 8 22 9 25 1 3 5 12 8 20 3 8 33 87 66
175 33 88 63 168 66 178 7 17 9 16 24 -6 9 -13 34 -46 56 -73z"/>
</g>
</svg>
